999
Inkscape export via "Better Better DXF Output" (http://tim.cexx.org/?p=590)
  0
SECTION
  2
HEADER
  9
$ACADVER
  1
AC1014
  9
$HANDSEED
  5
FFFF
  0
ENDSEC
  0
SECTION
  2
TABLES
  0
TABLE
  2
VPORT
  5
8
330
0
100
AcDbSymbolTable
 70
     4
  0
VPORT
  5
2E
330
8
100
AcDbSymbolTableRecord
100
AcDbViewportTableRecord
  2
*ACTIVE
 70
     0
 10
0.0
 20
0.0
 11
1.0
 21
1.0
 12
4.25
 22
5.5
 13
0.0
 23
0.0
 14
10.0
 24
10.0
 15
10.0
 25
10.0
 16
0.0
 26
0.0
 36
1.0
 17
0.0
 27
0.0
 37
0.0
 40
11
 41
1.24
 42
50.0
 43
0.0
 44
0.0
 50
0.0
 51
0.0
 71
     0
 72
   100
 73
     1
 74
     3
 75
     0
 76
     0
 77
     0
 78
     0
  0
ENDTAB
  0
TABLE
  2
LTYPE
  5
5
330
0
100
AcDbSymbolTable
 70
     1
  0
LTYPE
  5
14
330
5
100
AcDbSymbolTableRecord
100
AcDbLinetypeTableRecord
  2
BYBLOCK
 70
     0
  3

 72
    65
 73
     0
 40
0.0
  0
LTYPE
  5
15
330
5
100
AcDbSymbolTableRecord
100
AcDbLinetypeTableRecord
  2
BYLAYER
 70
     0
  3

 72
    65
 73
     0
 40
0.0
  0
LTYPE
  5
16
330
5
100
AcDbSymbolTableRecord
100
AcDbLinetypeTableRecord
  2
CONTINUOUS
 70
     0
  3
Solid line
 72
    65
 73
     0
 40
0.0
  0
ENDTAB
  0
TABLE
  2
STYLE
  5
3
330
0
100
AcDbSymbolTable
 70
     1
  0
STYLE
  5
11
330
3
100
AcDbSymbolTableRecord
100
AcDbTextStyleTableRecord
  2
STANDARD
 70
     0
 40
0.0
 41
1.0
 50
0.0
 71
     0
 42
2.5
  3
txt
  4

  0
ENDTAB
  0
TABLE
  2
VIEW
  5
6
330
0
100
AcDbSymbolTable
 70
     0
  0
ENDTAB
  0
TABLE
  2
UCS
  5
7
330
0
100
AcDbSymbolTable
 70
     0
  0
ENDTAB
  0
TABLE
  2
APPID
  5
9
330
0
100
AcDbSymbolTable
 70
     2
  0
APPID
  5
12
330
9
100
AcDbSymbolTableRecord
100
AcDbRegAppTableRecord
  2
ACAD
 70
     0
  0
ENDTAB
  0
TABLE
  2
DIMSTYLE
  5
A
330
0
100
AcDbSymbolTable
 70
     1
  0
DIMSTYLE
105
27
330
A
100
AcDbSymbolTableRecord
100
AcDbDimStyleTableRecord
  2
ISO-25
 70
     0
  3

  4

  5

  6

  7

 40
1.0
 41
2.5
 42
0.625
 43
3.75
 44
1.25
 45
0.0
 46
0.0
 47
0.0
 48
0.0
140
2.5
141
2.5
142
0.0
143
0.03937007874016
144
1.0
145
0.0
146
1.0
147
0.625
 71
     0
 72
     0
 73
     0
 74
     0
 75
     0
 76
     0
 77
     1
 78
     8
170
     0
171
     3
172
     1
173
     0
174
     0
175
     0
176
     0
177
     0
178
     0
270
     2
271
     2
272
     2
273
     2
274
     3
340
11
275
     0
280
     0
281
     0
282
     0
283
     0
284
     8
285
     0
286
     0
287
     3
288
     0
  0
ENDTAB
  0
TABLE
  2
BLOCK_RECORD
  5
1
330
0
100
AcDbSymbolTable
 70
     1
  0
BLOCK_RECORD
  5
1F
330
1
100
AcDbSymbolTableRecord
100
AcDbBlockTableRecord
  2
*MODEL_SPACE
  0
BLOCK_RECORD
  5
1B
330
1
100
AcDbSymbolTableRecord
100
AcDbBlockTableRecord
  2
*PAPER_SPACE
  0
ENDTAB
0
TABLE
2
LAYER
5
2
330
0
100
AcDbSymbolTable
70
1
0
LAYER
5
10
330
2
100
AcDbSymbolTableRecord
100
AcDbLayerTableRecord
2
Layer 1
70
0
62
7
6
CONTINUOUS
0
ENDTAB
0
ENDSEC
  0
SECTION
  2
BLOCKS
  0
BLOCK
  5
20
330
1F
100
AcDbEntity
  8
0
100
AcDbBlockBegin
  2
*MODEL_SPACE
 70
     0
 10
0.0
 20
0.0
 30
0.0
  3
*MODEL_SPACE
  1

  0
ENDBLK
  5
21
330
1F
100
AcDbEntity
  8
0
100
AcDbBlockEnd
  0
BLOCK
  5
1C
330
1B
100
AcDbEntity
 67
     1
  8
0
100
AcDbBlockBegin
  2
*PAPER_SPACE
  1

  0
ENDBLK
  5
1D
330
1B
100
AcDbEntity
 67
     1
  8
0
100
AcDbBlockEnd
  0
ENDSEC
  0
SECTION
  2
ENTITIES
0
LINE
8
Layer 1
62
4
5
100
100
AcDbEntity
100
AcDbLine
10
57.139552
20
79.300130
30
0.0
11
51.598553
21
73.942799
31
0.0
0
LINE
8
Layer 1
62
4
5
101
100
AcDbEntity
100
AcDbLine
10
51.598553
20
73.942799
30
0.0
11
51.721628
21
61.023380
31
0.0
0
LINE
8
Layer 1
62
4
5
102
100
AcDbEntity
100
AcDbLine
10
51.721628
20
61.023380
30
0.0
11
45.681392
21
61.023380
31
0.0
0
LINE
8
Layer 1
62
4
5
103
100
AcDbEntity
100
AcDbLine
10
45.681392
20
61.023380
30
0.0
11
45.807139
21
73.942799
31
0.0
0
LINE
8
Layer 1
62
4
5
104
100
AcDbEntity
100
AcDbLine
10
45.807139
20
73.942799
30
0.0
11
39.916783
21
79.283245
31
0.0
0
LINE
8
Layer 1
62
4
5
105
100
AcDbEntity
100
AcDbLine
10
39.916783
20
79.283245
30
0.0
11
34.485185
21
74.293778
31
0.0
0
LINE
8
Layer 1
62
4
5
106
100
AcDbEntity
100
AcDbLine
10
34.485185
20
74.293778
30
0.0
11
34.332610
21
61.023380
31
0.0
0
LINE
8
Layer 1
62
4
5
107
100
AcDbEntity
100
AcDbLine
10
34.332610
20
61.023380
30
0.0
11
28.292374
21
61.023380
31
0.0
0
LINE
8
Layer 1
62
4
5
108
100
AcDbEntity
100
AcDbLine
10
28.292374
20
61.023380
30
0.0
11
28.292374
21
74.293778
31
0.0
0
LINE
8
Layer 1
62
4
5
109
100
AcDbEntity
100
AcDbLine
10
28.292374
20
74.293778
30
0.0
11
22.625912
21
79.235789
31
0.0
0
LINE
8
Layer 1
62
4
5
10a
100
AcDbEntity
100
AcDbLine
10
22.625912
20
79.235789
30
0.0
11
17.385480
21
74.293778
31
0.0
0
LINE
8
Layer 1
62
4
5
10b
100
AcDbEntity
100
AcDbLine
10
17.385480
20
74.293778
30
0.0
11
17.373144
21
60.998451
31
0.0
0
LINE
8
Layer 1
62
4
5
10c
100
AcDbEntity
100
AcDbLine
10
17.373144
20
60.998451
30
0.0
11
14.412547
21
60.998451
31
0.0
0
LINE
8
Layer 1
62
4
5
10d
100
AcDbEntity
100
AcDbLine
10
14.412547
20
60.998451
30
0.0
11
14.412547
21
52.963389
31
0.0
0
LINE
8
Layer 1
62
4
5
10e
100
AcDbEntity
100
AcDbLine
10
14.412547
20
52.963389
30
0.0
11
17.365909
21
52.963389
31
0.0
0
LINE
8
Layer 1
62
4
5
10f
100
AcDbEntity
100
AcDbLine
10
17.365909
20
52.963389
30
0.0
11
17.342843
21
27.989773
31
0.0
0
LINE
8
Layer 1
62
4
5
110
100
AcDbEntity
100
AcDbLine
10
17.342843
20
27.989773
30
0.0
11
14.336935
21
27.989773
31
0.0
0
LINE
8
Layer 1
62
4
5
111
100
AcDbEntity
100
AcDbLine
10
14.336935
20
27.989773
30
0.0
11
14.336935
21
19.551469
31
0.0
0
LINE
8
Layer 1
62
4
5
112
100
AcDbEntity
100
AcDbLine
10
14.336935
20
19.551469
30
0.0
11
17.335077
21
19.551469
31
0.0
0
LINE
8
Layer 1
62
4
5
113
100
AcDbEntity
100
AcDbLine
10
17.335077
20
19.551469
30
0.0
11
17.327288
21
11.195197
31
0.0
0
LINE
8
Layer 1
62
4
5
114
100
AcDbEntity
100
AcDbLine
10
17.327288
20
11.195197
30
0.0
11
28.117029
21
11.185545
31
0.0
0
LINE
8
Layer 1
62
4
5
115
100
AcDbEntity
100
AcDbLine
10
28.117029
20
11.185545
30
0.0
11
28.117029
21
19.507234
31
0.0
0
LINE
8
Layer 1
62
4
5
116
100
AcDbEntity
100
AcDbLine
10
28.117029
20
19.507234
30
0.0
11
34.159684
21
19.507234
31
0.0
0
LINE
8
Layer 1
62
4
5
117
100
AcDbEntity
100
AcDbLine
10
34.159684
20
19.507234
30
0.0
11
34.071729
21
11.180188
31
0.0
0
LINE
8
Layer 1
62
4
5
118
100
AcDbEntity
100
AcDbLine
10
34.071729
20
11.180188
30
0.0
11
45.505497
21
11.170000
31
0.0
0
LINE
8
Layer 1
62
4
5
119
100
AcDbEntity
100
AcDbLine
10
45.505497
20
11.170000
30
0.0
11
45.505497
21
19.510177
31
0.0
0
LINE
8
Layer 1
62
4
5
11a
100
AcDbEntity
100
AcDbLine
10
45.505497
20
19.510177
30
0.0
11
51.454304
21
19.474516
31
0.0
0
LINE
8
Layer 1
62
4
5
11b
100
AcDbEntity
100
AcDbLine
10
51.454304
20
19.474516
30
0.0
11
51.328021
21
11.164906
31
0.0
0
LINE
8
Layer 1
62
4
5
11c
100
AcDbEntity
100
AcDbLine
10
51.328021
20
11.164906
30
0.0
11
62.711107
21
11.154718
31
0.0
0
LINE
8
Layer 1
62
4
5
11d
100
AcDbEntity
100
AcDbLine
10
62.711107
20
11.154718
30
0.0
11
62.711107
21
19.507240
31
0.0
0
LINE
8
Layer 1
62
4
5
11e
100
AcDbEntity
100
AcDbLine
10
62.711107
20
19.507240
30
0.0
11
68.769309
21
19.507240
31
0.0
0
LINE
8
Layer 1
62
4
5
11f
100
AcDbEntity
100
AcDbLine
10
68.769309
20
19.507240
30
0.0
11
68.666352
21
11.149364
31
0.0
0
LINE
8
Layer 1
62
4
5
120
100
AcDbEntity
100
AcDbLine
10
68.666352
20
11.149364
30
0.0
11
80.031203
21
11.139430
31
0.0
0
LINE
8
Layer 1
62
4
5
121
100
AcDbEntity
100
AcDbLine
10
80.031203
20
11.139430
30
0.0
11
79.916441
21
19.507491
31
0.0
0
LINE
8
Layer 1
62
4
5
122
100
AcDbEntity
100
AcDbLine
10
79.916441
20
19.507491
30
0.0
11
85.956679
21
19.507491
31
0.0
0
LINE
8
Layer 1
62
4
5
123
100
AcDbEntity
100
AcDbLine
10
85.956679
20
19.507491
30
0.0
11
85.956679
21
11.134059
31
0.0
0
LINE
8
Layer 1
62
4
5
124
100
AcDbEntity
100
AcDbLine
10
85.956679
20
11.134059
30
0.0
11
97.422343
21
11.123871
31
0.0
0
LINE
8
Layer 1
62
4
5
125
100
AcDbEntity
100
AcDbLine
10
97.422343
20
11.123871
30
0.0
11
97.403293
21
19.020048
31
0.0
0
LINE
8
Layer 1
62
4
5
126
100
AcDbEntity
100
AcDbLine
10
97.403293
20
19.020048
30
0.0
11
97.401882
21
19.551469
31
0.0
0
LINE
8
Layer 1
62
4
5
127
100
AcDbEntity
100
AcDbLine
10
97.401882
20
19.551469
30
0.0
11
100.358180
21
19.551469
31
0.0
0
LINE
8
Layer 1
62
4
5
128
100
AcDbEntity
100
AcDbLine
10
100.358180
20
19.551469
30
0.0
11
100.358180
21
27.989773
31
0.0
0
LINE
8
Layer 1
62
4
5
129
100
AcDbEntity
100
AcDbLine
10
100.358180
20
27.989773
30
0.0
11
97.381497
21
27.989773
31
0.0
0
LINE
8
Layer 1
62
4
5
12a
100
AcDbEntity
100
AcDbLine
10
97.381497
20
27.989773
30
0.0
11
97.308834
21
52.963389
31
0.0
0
LINE
8
Layer 1
62
4
5
12b
100
AcDbEntity
100
AcDbLine
10
97.308834
20
52.963389
30
0.0
11
100.263263
21
52.963389
31
0.0
0
LINE
8
Layer 1
62
4
5
12c
100
AcDbEntity
100
AcDbLine
10
100.263263
20
52.963389
30
0.0
11
100.263263
21
60.998451
31
0.0
0
LINE
8
Layer 1
62
4
5
12d
100
AcDbEntity
100
AcDbLine
10
100.263263
20
60.998451
30
0.0
11
97.290345
21
60.998451
31
0.0
0
LINE
8
Layer 1
62
4
5
12e
100
AcDbEntity
100
AcDbLine
10
97.290345
20
60.998451
30
0.0
11
97.289499
21
61.181046
31
0.0
0
LINE
8
Layer 1
62
4
5
12f
100
AcDbEntity
100
AcDbLine
10
97.289499
20
61.181046
30
0.0
11
97.270646
21
74.294038
31
0.0
0
LINE
8
Layer 1
62
4
5
130
100
AcDbEntity
100
AcDbLine
10
97.270646
20
74.294038
30
0.0
11
91.734217
21
79.112458
31
0.0
0
LINE
8
Layer 1
62
4
5
131
100
AcDbEntity
100
AcDbLine
10
91.734217
20
79.112458
30
0.0
11
86.127522
21
74.294038
31
0.0
0
LINE
8
Layer 1
62
4
5
132
100
AcDbEntity
100
AcDbLine
10
86.127522
20
74.294038
30
0.0
11
86.132376
21
61.023657
31
0.0
0
LINE
8
Layer 1
62
4
5
133
100
AcDbEntity
100
AcDbLine
10
86.132376
20
61.023657
30
0.0
11
80.092141
21
61.023657
31
0.0
0
LINE
8
Layer 1
62
4
5
134
100
AcDbEntity
100
AcDbLine
10
80.092141
20
61.023657
30
0.0
11
80.028325
21
74.118418
31
0.0
0
LINE
8
Layer 1
62
4
5
135
100
AcDbEntity
100
AcDbLine
10
80.028325
20
74.118418
30
0.0
11
74.420572
21
79.144361
31
0.0
0
LINE
8
Layer 1
62
4
5
136
100
AcDbEntity
100
AcDbLine
10
74.420572
20
79.144361
30
0.0
11
68.986555
21
74.294038
31
0.0
0
LINE
8
Layer 1
62
4
5
137
100
AcDbEntity
100
AcDbLine
10
68.986555
20
74.294038
30
0.0
11
68.926772
21
61.023657
31
0.0
0
LINE
8
Layer 1
62
4
5
138
100
AcDbEntity
100
AcDbLine
10
68.926772
20
61.023657
30
0.0
11
62.886536
21
61.023657
31
0.0
0
LINE
8
Layer 1
62
4
5
139
100
AcDbEntity
100
AcDbLine
10
62.886536
20
61.023657
30
0.0
11
62.829965
21
74.294038
31
0.0
0
LINE
8
Layer 1
62
4
5
13a
100
AcDbEntity
100
AcDbLine
10
62.829965
20
74.294038
30
0.0
11
57.139552
21
79.300130
31
0.0
0
LINE
8
Layer 1
62
4
5
13b
100
AcDbEntity
100
AcDbLine
10
45.680853
20
52.978942
30
0.0
11
51.629649
21
52.878397
31
0.0
0
LINE
8
Layer 1
62
4
5
13c
100
AcDbEntity
100
AcDbLine
10
51.629649
20
52.878397
30
0.0
11
51.494523
21
27.893792
31
0.0
0
LINE
8
Layer 1
62
4
5
13d
100
AcDbEntity
100
AcDbLine
10
51.494523
20
27.893792
30
0.0
11
45.680853
21
27.893792
31
0.0
0
LINE
8
Layer 1
62
4
5
13e
100
AcDbEntity
100
AcDbLine
10
45.680853
20
27.893792
30
0.0
11
45.680853
21
52.978942
31
0.0
0
LINE
8
Layer 1
62
4
5
13f
100
AcDbEntity
100
AcDbLine
10
28.292374
20
52.969826
30
0.0
11
34.335305
21
52.969826
31
0.0
0
LINE
8
Layer 1
62
4
5
140
100
AcDbEntity
100
AcDbLine
10
34.335305
20
52.969826
30
0.0
11
34.241181
21
27.985220
31
0.0
0
LINE
8
Layer 1
62
4
5
141
100
AcDbEntity
100
AcDbLine
10
34.241181
20
27.985220
30
0.0
11
28.292374
21
27.884676
31
0.0
0
LINE
8
Layer 1
62
4
5
142
100
AcDbEntity
100
AcDbLine
10
28.292374
20
27.884676
30
0.0
11
28.292374
21
52.969826
31
0.0
0
LINE
8
Layer 1
62
4
5
143
100
AcDbEntity
100
AcDbLine
10
62.886449
20
52.969826
30
0.0
11
68.944927
21
52.969826
31
0.0
0
LINE
8
Layer 1
62
4
5
144
100
AcDbEntity
100
AcDbLine
10
68.944927
20
52.969826
30
0.0
11
68.835259
21
27.985220
31
0.0
0
LINE
8
Layer 1
62
4
5
145
100
AcDbEntity
100
AcDbLine
10
68.835259
20
27.985220
30
0.0
11
62.886449
21
27.884676
31
0.0
0
LINE
8
Layer 1
62
4
5
146
100
AcDbEntity
100
AcDbLine
10
62.886449
20
27.884676
30
0.0
11
62.886449
21
52.969826
31
0.0
0
LINE
8
Layer 1
62
4
5
147
100
AcDbEntity
100
AcDbLine
10
80.092062
20
52.969826
30
0.0
11
86.132297
21
52.969826
31
0.0
0
LINE
8
Layer 1
62
4
5
148
100
AcDbEntity
100
AcDbLine
10
86.132297
20
52.969826
30
0.0
11
86.132297
21
27.893795
31
0.0
0
LINE
8
Layer 1
62
4
5
149
100
AcDbEntity
100
AcDbLine
10
86.132297
20
27.893795
30
0.0
11
80.214058
21
28.015791
31
0.0
0
LINE
8
Layer 1
62
4
5
14a
100
AcDbEntity
100
AcDbLine
10
80.214058
20
28.015791
30
0.0
11
80.092062
21
52.969826
31
0.0
  0
ENDSEC
  0
SECTION
  2
OBJECTS
  0
DICTIONARY
  5
C
330
0
100
AcDbDictionary
  3
ACAD_GROUP
350
D
  3
ACAD_MLINESTYLE
350
17
  0
DICTIONARY
  5
D
330
C
100
AcDbDictionary
  0
DICTIONARY
  5
1A
330
C
100
AcDbDictionary
  0
DICTIONARY
  5
17
330
C
100
AcDbDictionary
  3
STANDARD
350
18
  0
DICTIONARY
  5
19
330
C
100
AcDbDictionary
  0
ENDSEC
  0
EOF
